<svg width="142" height="23" viewBox="0 0 142 23" fill="none" xmlns="http://www.w3.org/2000/svg">
<path d="M10.8105 15.7148V18H3.24219V15.7148H10.8105ZM4.19922 3.78125V18H1.26953V3.78125H4.19922ZM9.82422 9.57227V11.7988H3.24219V9.57227H9.82422ZM10.8008 3.78125V6.07617H3.24219V3.78125H10.8008ZM14.6094 7.43359L16.3574 10.6465L18.1543 7.43359H21.1523L18.1641 12.5996L21.2891 18H18.2812L16.377 14.6016L14.4727 18H11.4648L14.5898 12.5996L11.6016 7.43359H14.6094ZM25.332 9.46484V22.0625H22.5195V7.43359H25.127L25.332 9.46484ZM32.0215 12.5996V12.8047C32.0215 13.5729 31.9303 14.2858 31.748 14.9434C31.5723 15.6009 31.3118 16.1738 30.9668 16.6621C30.6217 17.1439 30.1921 17.5215 29.6777 17.7949C29.1699 18.0618 28.584 18.1953 27.9199 18.1953C27.2754 18.1953 26.7155 18.0651 26.2402 17.8047C25.765 17.5443 25.3646 17.1797 25.0391 16.7109C24.7201 16.2357 24.4629 15.6855 24.2676 15.0605C24.0723 14.4355 23.9225 13.765 23.8184 13.0488V12.5117C23.9225 11.7435 24.0723 11.0404 24.2676 10.4023C24.4629 9.75781 24.7201 9.20117 25.0391 8.73242C25.3646 8.25716 25.7617 7.88932 26.2305 7.62891C26.7057 7.36849 27.2624 7.23828 27.9004 7.23828C28.571 7.23828 29.1602 7.36523 29.668 7.61914C30.1823 7.87305 30.612 8.23763 30.957 8.71289C31.3086 9.18815 31.5723 9.75456 31.748 10.4121C31.9303 11.0697 32.0215 11.7988 32.0215 12.5996ZM29.1992 12.8047V12.5996C29.1992 12.1504 29.1602 11.737 29.082 11.3594C29.0104 10.9753 28.8932 10.64 28.7305 10.3535C28.5742 10.0671 28.3659 9.8457 28.1055 9.68945C27.8516 9.52669 27.5423 9.44531 27.1777 9.44531C26.7936 9.44531 26.4648 9.50716 26.1914 9.63086C25.9245 9.75456 25.7064 9.93359 25.5371 10.168C25.3678 10.4023 25.2409 10.6823 25.1562 11.0078C25.0716 11.3333 25.0195 11.7012 25 12.1113V13.4688C25.0326 13.9505 25.1237 14.3835 25.2734 14.7676C25.4232 15.1452 25.6543 15.4447 25.9668 15.666C26.2793 15.8874 26.6895 15.998 27.1973 15.998C27.5684 15.998 27.8809 15.9167 28.1348 15.7539C28.3887 15.5846 28.5938 15.3535 28.75 15.0605C28.9128 14.7676 29.0267 14.429 29.0918 14.0449C29.1634 13.6608 29.1992 13.2474 29.1992 12.8047ZM36.7383 3V18H33.916V3H36.7383ZM38.6133 12.8242V12.6191C38.6133 11.8444 38.724 11.1315 38.9453 10.4805C39.1667 9.82292 39.4889 9.25326 39.9121 8.77148C40.3353 8.28971 40.8561 7.91536 41.4746 7.64844C42.0931 7.375 42.8027 7.23828 43.6035 7.23828C44.4043 7.23828 45.1172 7.375 45.7422 7.64844C46.3672 7.91536 46.8913 8.28971 47.3145 8.77148C47.7441 9.25326 48.0697 9.82292 48.291 10.4805C48.5124 11.1315 48.623 11.8444 48.623 12.6191V12.8242C48.623 13.5924 48.5124 14.3053 48.291 14.9629C48.0697 15.6139 47.7441 16.1836 47.3145 16.6719C46.8913 17.1536 46.3704 17.528 45.752 17.7949C45.1335 18.0618 44.4238 18.1953 43.623 18.1953C42.8223 18.1953 42.1094 18.0618 41.4844 17.7949C40.8659 17.528 40.3418 17.1536 39.9121 16.6719C39.4889 16.1836 39.1667 15.6139 38.9453 14.9629C38.724 14.3053 38.6133 13.5924 38.6133 12.8242ZM41.4258 12.6191V12.8242C41.4258 13.2669 41.4648 13.6803 41.543 14.0645C41.6211 14.4486 41.7448 14.7871 41.9141 15.0801C42.0898 15.3665 42.3177 15.5911 42.5977 15.7539C42.8776 15.9167 43.2194 15.998 43.623 15.998C44.0137 15.998 44.349 15.9167 44.6289 15.7539C44.9089 15.5911 45.1335 15.3665 45.3027 15.0801C45.472 14.7871 45.5957 14.4486 45.6738 14.0645C45.7585 13.6803 45.8008 13.2669 45.8008 12.8242V12.6191C45.8008 12.1895 45.7585 11.7858 45.6738 11.4082C45.5957 11.0241 45.4688 10.6855 45.293 10.3926C45.1237 10.0931 44.8991 9.85872 44.6191 9.68945C44.3392 9.52018 44.0007 9.43555 43.6035 9.43555C43.2064 9.43555 42.8678 9.52018 42.5879 9.68945C42.3145 9.85872 42.0898 10.0931 41.9141 10.3926C41.7448 10.6855 41.6211 11.0241 41.543 11.4082C41.4648 11.7858 41.4258 12.1895 41.4258 12.6191ZM53.1641 9.73828V18H50.3516V7.43359H52.998L53.1641 9.73828ZM56.3477 7.36523L56.2988 9.97266C56.1621 9.95312 55.9961 9.93685 55.8008 9.92383C55.612 9.9043 55.4395 9.89453 55.2832 9.89453C54.8861 9.89453 54.541 9.94661 54.248 10.0508C53.9616 10.1484 53.7207 10.2949 53.5254 10.4902C53.3366 10.6855 53.1934 10.9232 53.0957 11.2031C53.0046 11.4831 52.9525 11.8021 52.9395 12.1602L52.373 11.9844C52.373 11.3008 52.4414 10.6725 52.5781 10.0996C52.7148 9.52018 52.9134 9.01562 53.1738 8.58594C53.4408 8.15625 53.7663 7.82422 54.1504 7.58984C54.5345 7.35547 54.974 7.23828 55.4688 7.23828C55.625 7.23828 55.7845 7.2513 55.9473 7.27734C56.11 7.29688 56.2435 7.32617 56.3477 7.36523ZM62.3438 18.1953C61.5234 18.1953 60.7878 18.0651 60.1367 17.8047C59.4857 17.5378 58.9323 17.1699 58.4766 16.7012C58.0273 16.2324 57.6823 15.6888 57.4414 15.0703C57.2005 14.4453 57.0801 13.7812 57.0801 13.0781V12.6875C57.0801 11.8867 57.194 11.1543 57.4219 10.4902C57.6497 9.82617 57.9753 9.25 58.3984 8.76172C58.8281 8.27344 59.349 7.89909 59.9609 7.63867C60.5729 7.37174 61.263 7.23828 62.0312 7.23828C62.7799 7.23828 63.444 7.36198 64.0234 7.60938C64.6029 7.85677 65.0879 8.20833 65.4785 8.66406C65.8757 9.11979 66.1751 9.66667 66.377 10.3047C66.5788 10.9362 66.6797 11.6393 66.6797 12.4141V13.5859H58.2812V11.7109H63.916V11.4961C63.916 11.1055 63.8444 10.7572 63.7012 10.4512C63.5645 10.1387 63.3561 9.89128 63.0762 9.70898C62.7962 9.52669 62.4382 9.43555 62.002 9.43555C61.6309 9.43555 61.3118 9.51693 61.0449 9.67969C60.778 9.84245 60.5599 10.0703 60.3906 10.3633C60.2279 10.6562 60.1042 11.0013 60.0195 11.3984C59.9414 11.7891 59.9023 12.2188 59.9023 12.6875V13.0781C59.9023 13.5013 59.9609 13.8919 60.0781 14.25C60.2018 14.6081 60.3743 14.9173 60.5957 15.1777C60.8236 15.4382 61.097 15.64 61.416 15.7832C61.7415 15.9264 62.1094 15.998 62.5195 15.998C63.0273 15.998 63.4993 15.9004 63.9355 15.7051C64.3783 15.5033 64.7591 15.2005 65.0781 14.7969L66.4453 16.2812C66.224 16.6003 65.9212 16.9062 65.5371 17.1992C65.1595 17.4922 64.7038 17.7331 64.1699 17.9219C63.6361 18.1042 63.0273 18.1953 62.3438 18.1953ZM85.0098 3.78125V18H82.0801L76.3672 8.46875V18H73.4375V3.78125H76.3672L82.0898 13.3223V3.78125H85.0098ZM86.9336 12.8242V12.6191C86.9336 11.8444 87.0443 11.1315 87.2656 10.4805C87.487 9.82292 87.8092 9.25326 88.2324 8.77148C88.6556 8.28971 89.1764 7.91536 89.7949 7.64844C90.4134 7.375 91.123 7.23828 91.9238 7.23828C92.7246 7.23828 93.4375 7.375 94.0625 7.64844C94.6875 7.91536 95.2116 8.28971 95.6348 8.77148C96.0645 9.25326 96.39 9.82292 96.6113 10.4805C96.8327 11.1315 96.9434 11.8444 96.9434 12.6191V12.8242C96.9434 13.5924 96.8327 14.3053 96.6113 14.9629C96.39 15.6139 96.0645 16.1836 95.6348 16.6719C95.2116 17.1536 94.6908 17.528 94.0723 17.7949C93.4538 18.0618 92.7441 18.1953 91.9434 18.1953C91.1426 18.1953 90.4297 18.0618 89.8047 17.7949C89.1862 17.528 88.6621 17.1536 88.2324 16.6719C87.8092 16.1836 87.487 15.6139 87.2656 14.9629C87.0443 14.3053 86.9336 13.5924 86.9336 12.8242ZM89.7461 12.6191V12.8242C89.7461 13.2669 89.7852 13.6803 89.8633 14.0645C89.9414 14.4486 90.0651 14.7871 90.2344 15.0801C90.4102 15.3665 90.638 15.5911 90.918 15.7539C91.1979 15.9167 91.5397 15.998 91.9434 15.998C92.334 15.998 92.6693 15.9167 92.9492 15.7539C93.2292 15.5911 93.4538 15.3665 93.623 15.0801C93.7923 14.7871 93.916 14.4486 93.9941 14.0645C94.0788 13.6803 94.1211 13.2669 94.1211 12.8242V12.6191C94.1211 12.1895 94.0788 11.7858 93.9941 11.4082C93.916 11.0241 93.7891 10.6855 93.6133 10.3926C93.444 10.0931 93.2194 9.85872 92.9395 9.68945C92.6595 9.52018 92.321 9.43555 91.9238 9.43555C91.5267 9.43555 91.1882 9.52018 90.9082 9.68945C90.6348 9.85872 90.4102 10.0931 90.2344 10.3926C90.0651 10.6855 89.9414 11.0241 89.8633 11.4082C89.7852 11.7858 89.7461 12.1895 89.7461 12.6191ZM101.689 15.2656L103.887 7.43359H105.674L105.098 10.5098L102.9 18H101.406L101.689 15.2656ZM100.576 7.43359L102.148 15.2559L102.295 18H100.537L97.8613 7.43359H100.576ZM107.686 15.1289L109.219 7.43359H111.943L109.268 18H107.52L107.686 15.1289ZM105.918 7.43359L108.105 15.207L108.408 18H106.904L104.707 10.5195L104.15 7.43359H105.918Z" fill="#274C5B"/>
<circle cx="132.5" cy="11.5" r="9.5" fill="#335B6B"/>
<path d="M132.476 8.12891L135.871 11.1934L132.476 14.2579M135.399 11.1934H128.516" stroke="white" stroke-linecap="round" stroke-linejoin="round"/>
</svg>
